<svg version="1.2" xmlns="http://www.w3.org/2000/svg" viewBox="0 0 790 258" width="790" height="258">
	<title>New Project</title>
	<style>
		.s0 { fill: #ffffff } 
	</style>
	<path id="Shape 1" class="s0" d="m156 230.1c0 0 159.8-17.7 320-30 20.3-1.5 20.4-1.2 40.8-2 11.8-0.4 11.9 0.6 23.6-0.5 8.1-0.8 8-1.4 16-2.4 18.3-2.3 18.3-2.4 36.7-3.6 19.2-1.2 38.4-1.1 38.4-1.1 0 0 22.6-0.5 29.2 11 3.2 5.4 4.2 9.4 1.2 14.7-3 5.2-13 6.3-13 6.3 0 0-103.9-3.4-207.8-2.5-142.6 1.3-285.1 10.1-285.1 10.1z"/>
	<path id="WorkEasy" class="s0" aria-label="WorkEasy"  d="m53.4 156l-23.4-109.4h24.3l17 79.5 17-79.5h24.4l16.9 79.5 17-79.5h24.1l-23.2 109.4h-29.3l-17.9-83.1-17.6 83.1zm162.6-65.3q-7.8 0-12 6.3-4.1 6.3-4.1 18.1 0 11.7 4.1 18 4.2 6.3 12 6.3 7.8 0 11.8-6.3 4.1-6.3 4.1-18 0-11.8-4.1-18.1-4-6.3-11.8-6.3zm0-18.7q19.1 0 29.8 11.4 10.7 11.4 10.7 31.7 0 20.2-10.7 31.6-10.7 11.4-29.8 11.4-19.1 0-29.9-11.4-10.8-11.4-10.8-31.6 0-20.3 10.8-31.7 10.8-11.4 29.9-11.4zm112.4 0.6l0.1 23.7q-3.2-1.6-6.2-2.3-3-0.8-6.2-0.8-9.1 0-14 6.5-4.9 6.4-4.9 18.5v37.8h-23.6v-82h23.6v13.4q4.6-8 10.4-11.7 5.9-3.7 14.2-3.7 1.2 0 2.6 0.1 1.4 0.1 4 0.5zm11.8 83.4v-114h23.6v62.1l27.2-30.1h27.4l-36.1 37.6 38.9 44.4h-28.6l-28.8-34.2v34.2zm90.7 0v-109.4h68.5v21.4h-43v20.3h40.5v21.3h-40.5v25.1h44.5v21.3zm136.5-36.9h-12.2q-7.4 0-11.2 2.8-3.7 2.8-3.7 8.2 0 5 3 7.8 3 2.8 8.4 2.8 6.6 0 11.2-5.3 4.5-5.3 4.5-13.3zm23.8-9.9v46.8h-23.8v-12.2q-4.8 7.5-10.7 11-5.9 3.3-14.4 3.3-11.5 0-18.7-7.4-7.1-7.4-7.1-19.3 0-14.4 8.9-21.2 9-6.7 28.1-6.7h13.9v-2.1q0-6.2-4.5-9-4.4-3-13.7-3-7.6 0-14.1 1.7-6.5 1.7-12.2 5.1v-20q7.7-2.1 15.3-3.1 7.7-1.1 15.3-1.1 20 0 28.8 8.8 8.9 8.7 8.9 28.4zm79.6-32.7v20q-7.6-3.6-14.7-5.3-7-1.8-13.3-1.8-6.7 0-10 1.9-3.2 1.9-3.2 5.7 0 3.2 2.4 4.9 2.5 1.7 8.9 2.5l4.1 0.6q18.2 2.6 24.4 8.4 6.3 5.9 6.3 18.4 0 13.1-8.7 19.7-8.7 6.6-26 6.6-7.3 0-15.1-1.2-7.8-1.3-16-3.9v-19.9q7 3.8 14.4 5.7 7.5 1.9 15.1 1.9 6.9 0 10.4-2.1 3.5-2.2 3.5-6.3 0-3.5-2.4-5.2-2.4-1.8-9.6-2.7l-4.2-0.6q-15.7-2.2-22.1-8.2-6.3-5.9-6.3-18 0-13 8.1-19.3 8-6.3 24.7-6.3 6.5 0 13.7 1.1 7.1 1.1 15.6 3.4zm45.9 82.7l-33-85.2h23.7l19.8 55.6 16.9-55.6h23.6l-31.1 89.8q-4.7 13.7-10.9 19.2-6.2 5.4-16.4 5.4h-13.7v-17.2h7.4q6 0 8.7-2.2 2.8-2.1 4.3-7.6z"/>
</svg>